ISO-10303-21;
HEADER;
/* Generated by software containing ST-Developer
 * from STEP Tools, Inc. (www.steptools.com) 
 */
/* OPTION: using custom renumber hook */

FILE_DESCRIPTION(
/* description */ ('STEP AP242 Edition 2',
'CAx-IF Rec.Pracs.---Representation and Presentation of Product Manufa
cturing Information (PMI)---4.0---2014-10-13',
'CAx-IF Rec.Pracs.---3D Tessellated Geometry---0.4---2014-09-14','2;1',
'CAx-IF Rec.Pracs.---User Defined Attributes---1.5---2016-08-15'),
/* implementation_level */ '2;1');

FILE_NAME(
/* name */ 'Part Studio 1 - Part 1',
/* time_stamp */ '2026-08-15T03:19:08Z',
/* author */ (''),
/* organization */ (''),
/* preprocessor_version */ 'ST-DEVELOPER v20',
/* originating_system */ 'ONSHAPE BY PTC INC, 1.219',
/* authorisation */ '  ');

FILE_SCHEMA (('AP242_MANAGED_MODEL_BASED_3D_ENGINEERING_MIM_LF { 1 0 10303 442 3 1 4 }'));
ENDSEC;

DATA;
#10=SHAPE_REPRESENTATION_RELATIONSHIP('','',#785,#11);
#11=ADVANCED_BREP_SHAPE_REPRESENTATION('',(#783),#1325);
#12=ELLIPSE('',#798,0.00424264068711929,0.003);
#13=ELLIPSE('',#807,0.00141421356237309,0.001);
#14=ELLIPSE('',#825,0.00424264068711928,0.003);
#15=ELLIPSE('',#828,0.00141421356237309,0.001);
#16=ELLIPSE('',#830,0.00141421356237309,0.001);
#17=ELLIPSE('',#839,0.00141421356237309,0.001);
#18=PLANE('',#795);
#19=PLANE('',#796);
#20=PLANE('',#808);
#21=PLANE('',#809);
#22=PLANE('',#810);
#23=PLANE('',#811);
#24=PLANE('',#812);
#25=PLANE('',#813);
#26=PLANE('',#814);
#27=PLANE('',#817);
#28=PLANE('',#818);
#29=PLANE('',#821);
#30=PLANE('',#822);
#31=PLANE('',#840);
#32=PLANE('',#841);
#33=PLANE('',#842);
#34=PLANE('',#843);
#35=PLANE('',#844);
#36=PLANE('',#845);
#37=PLANE('',#846);
#38=PLANE('',#847);
#39=PLANE('',#848);
#40=PLANE('',#849);
#41=PLANE('',#850);
#42=PLANE('',#851);
#43=PLANE('',#854);
#44=PLANE('',#857);
#45=TOROIDAL_SURFACE('',#790,0.002,0.001);
#46=TOROIDAL_SURFACE('',#802,0.002,0.001);
#47=TOROIDAL_SURFACE('',#832,0.002,0.001);
#48=TOROIDAL_SURFACE('',#836,0.002,0.001);
#49=LINE('',#1087,#124);
#50=LINE('',#1091,#125);
#51=LINE('',#1118,#126);
#52=LINE('',#1121,#127);
#53=LINE('',#1123,#128);
#54=LINE('',#1125,#129);
#55=LINE('',#1127,#130);
#56=LINE('',#1130,#131);
#57=LINE('',#1132,#132);
#58=LINE('',#1134,#133);
#59=LINE('',#1136,#134);
#60=LINE('',#1143,#135);
#61=LINE('',#1147,#136);
#62=LINE('',#1167,#137);
#63=LINE('',#1171,#138);
#64=LINE('',#1173,#139);
#65=LINE('',#1176,#140);
#66=LINE('',#1178,#141);
#67=LINE('',#1180,#142);
#68=LINE('',#1182,#143);
#69=LINE('',#1185,#144);
#70=LINE('',#1187,#145);
#71=LINE('',#1189,#146);
#72=LINE('',#1191,#147);
#73=LINE('',#1194,#148);
#74=LINE('',#1196,#149);
#75=LINE('',#1198,#150);
#76=LINE('',#1200,#151);
#77=LINE('',#1203,#152);
#78=LINE('',#1205,#153);
#79=LINE('',#1207,#154);
#80=LINE('',#1209,#155);
#81=LINE('',#1210,#156);
#82=LINE('',#1211,#157);
#83=LINE('',#1212,#158);
#84=LINE('',#1214,#159);
#85=LINE('',#1215,#160);
#86=LINE('',#1216,#161);
#87=LINE('',#1217,#162);
#88=LINE('',#1222,#163);
#89=LINE('',#1223,#164);
#90=LINE('',#1225,#165);
#91=LINE('',#1227,#166);
#92=LINE('',#1229,#167);
#93=LINE('',#1231,#168);
#94=LINE('',#1233,#169);
#95=LINE('',#1235,#170);
#96=LINE('',#1237,#171);
#97=LINE('',#1241,#172);
#98=LINE('',#1245,#173);
#99=LINE('',#1247,#174);
#100=LINE('',#1249,#175);
#101=LINE('',#1251,#176);
#102=LINE('',#1253,#177);
#103=LINE('',#1255,#178);
#104=LINE('',#1257,#179);
#105=LINE('',#1263,#180);
#106=LINE('',#1279,#181);
#107=LINE('',#1281,#182);
#108=LINE('',#1282,#183);
#109=LINE('',#1284,#184);
#110=LINE('',#1286,#185);
#111=LINE('',#1288,#186);
#112=LINE('',#1290,#187);
#113=LINE('',#1292,#188);
#114=LINE('',#1294,#189);
#115=LINE('',#1295,#190);
#116=LINE('',#1297,#191);
#117=LINE('',#1299,#192);
#118=LINE('',#1301,#193);
#119=LINE('',#1303,#194);
#120=LINE('',#1305,#195);
#121=LINE('',#1307,#196);
#122=LINE('',#1309,#197);
#123=LINE('',#1311,#198);
#124=VECTOR('',#864,1.);
#125=VECTOR('',#867,1.);
#126=VECTOR('',#880,1.);
#127=VECTOR('',#881,1.);
#128=VECTOR('',#882,1.);
#129=VECTOR('',#883,1.);
#130=VECTOR('',#886,1.);
#131=VECTOR('',#887,1.);
#132=VECTOR('',#888,1.);
#133=VECTOR('',#889,1.);
#134=VECTOR('',#892,1.);
#135=VECTOR('',#897,1.);
#136=VECTOR('',#900,1.);
#137=VECTOR('',#913,1.);
#138=VECTOR('',#916,1.);
#139=VECTOR('',#919,1.);
#140=VECTOR('',#920,1.);
#141=VECTOR('',#921,1.);
#142=VECTOR('',#922,1.);
#143=VECTOR('',#925,1.);
#144=VECTOR('',#926,1.);
#145=VECTOR('',#927,1.);
#146=VECTOR('',#928,1.);
#147=VECTOR('',#931,1.);
#148=VECTOR('',#932,1.);
#149=VECTOR('',#933,1.);
#150=VECTOR('',#934,1.);
#151=VECTOR('',#937,1.);
#152=VECTOR('',#938,1.);
#153=VECTOR('',#939,1.);
#154=VECTOR('',#940,1.);
#155=VECTOR('',#943,1.);
#156=VECTOR('',#944,1.);
#157=VECTOR('',#945,1.);
#158=VECTOR('',#946,1.);
#159=VECTOR('',#949,1.);
#160=VECTOR('',#950,1.);
#161=VECTOR('',#951,1.);
#162=VECTOR('',#952,1.);
#163=VECTOR('',#959,1.);
#164=VECTOR('',#960,1.);
#165=VECTOR('',#961,1.);
#166=VECTOR('',#964,1.);
#167=VECTOR('',#965,1.);
#168=VECTOR('',#966,1.);
#169=VECTOR('',#967,1.);
#170=VECTOR('',#970,1.);
#171=VECTOR('',#971,1.);
#172=VECTOR('',#974,1.);
#173=VECTOR('',#977,1.);
#174=VECTOR('',#978,1.);
#175=VECTOR('',#981,1.);
#176=VECTOR('',#982,1.);
#177=VECTOR('',#985,1.);
#178=VECTOR('',#986,1.);
#179=VECTOR('',#987,1.);
#180=VECTOR('',#994,1.);
#181=VECTOR('',#1025,1.);
#182=VECTOR('',#1026,1.);
#183=VECTOR('',#1027,1.);
#184=VECTOR('',#1028,1.);
#185=VECTOR('',#1031,1.);
#186=VECTOR('',#1032,1.);
#187=VECTOR('',#1033,1.);
#188=VECTOR('',#1036,1.);
#189=VECTOR('',#1037,1.);
#190=VECTOR('',#1038,1.);
#191=VECTOR('',#1039,1.);
#192=VECTOR('',#1042,1.);
#193=VECTOR('',#1043,1.);
#194=VECTOR('',#1044,1.);
#195=VECTOR('',#1047,1.);
#196=VECTOR('',#1050,1.);
#197=VECTOR('',#1053,1.);
#198=VECTOR('',#1056,1.);
#199=CIRCLE('',#788,0.001);
#200=CIRCLE('',#789,0.001);
#201=CIRCLE('',#791,0.002);
#202=CIRCLE('',#792,0.001);
#203=CIRCLE('',#793,0.003);
#204=CIRCLE('',#794,0.00266143782776615);
#205=CIRCLE('',#799,0.003);
#206=CIRCLE('',#800,0.003);
#207=CIRCLE('',#801,0.003);
#208=CIRCLE('',#803,0.00266143782776615);
#209=CIRCLE('',#804,0.001);
#210=CIRCLE('',#805,0.002);
#211=CIRCLE('',#815,0.0015);
#212=CIRCLE('',#816,0.0015);
#213=CIRCLE('',#819,0.002);
#214=CIRCLE('',#820,0.002);
#215=CIRCLE('',#824,0.003);
#216=CIRCLE('',#826,0.003);
#217=CIRCLE('',#831,0.001);
#218=CIRCLE('',#833,0.001);
#219=CIRCLE('',#835,0.001);
#220=CIRCLE('',#837,0.001);
#221=CIRCLE('',#853,0.0015);
#222=CIRCLE('',#856,0.0015);
#223=ORIENTED_EDGE('',*,*,#445,.F.);
#224=ORIENTED_EDGE('',*,*,#446,.T.);
#225=ORIENTED_EDGE('',*,*,#447,.F.);
#226=ORIENTED_EDGE('',*,*,#448,.F.);
#227=ORIENTED_EDGE('',*,*,#449,.F.);
#228=ORIENTED_EDGE('',*,*,#450,.F.);
#229=ORIENTED_EDGE('',*,*,#451,.F.);
#230=ORIENTED_EDGE('',*,*,#452,.T.);
#231=ORIENTED_EDGE('',*,*,#453,.F.);
#232=ORIENTED_EDGE('',*,*,#454,.T.);
#233=ORIENTED_EDGE('',*,*,#455,.T.);
#234=ORIENTED_EDGE('',*,*,#456,.F.);
#235=ORIENTED_EDGE('',*,*,#446,.F.);
#236=ORIENTED_EDGE('',*,*,#457,.T.);
#237=ORIENTED_EDGE('',*,*,#458,.T.);
#238=ORIENTED_EDGE('',*,*,#459,.F.);
#239=ORIENTED_EDGE('',*,*,#460,.T.);
#240=ORIENTED_EDGE('',*,*,#461,.T.);
#241=ORIENTED_EDGE('',*,*,#462,.T.);
#242=ORIENTED_EDGE('',*,*,#463,.F.);
#243=ORIENTED_EDGE('',*,*,#464,.T.);
#244=ORIENTED_EDGE('',*,*,#465,.F.);
#245=ORIENTED_EDGE('',*,*,#466,.T.);
#246=ORIENTED_EDGE('',*,*,#467,.T.);
#247=ORIENTED_EDGE('',*,*,#468,.F.);
#248=ORIENTED_EDGE('',*,*,#469,.T.);
#249=ORIENTED_EDGE('',*,*,#470,.F.);
#250=ORIENTED_EDGE('',*,*,#471,.T.);
#251=ORIENTED_EDGE('',*,*,#472,.F.);
#252=ORIENTED_EDGE('',*,*,#473,.T.);
#253=ORIENTED_EDGE('',*,*,#474,.F.);
#254=ORIENTED_EDGE('',*,*,#471,.F.);
#255=ORIENTED_EDGE('',*,*,#475,.F.);
#256=ORIENTED_EDGE('',*,*,#476,.F.);
#257=ORIENTED_EDGE('',*,*,#448,.T.);
#258=ORIENTED_EDGE('',*,*,#477,.F.);
#259=ORIENTED_EDGE('',*,*,#478,.T.);
#260=ORIENTED_EDGE('',*,*,#479,.F.);
#261=ORIENTED_EDGE('',*,*,#475,.T.);
#262=ORIENTED_EDGE('',*,*,#480,.T.);
#263=ORIENTED_EDGE('',*,*,#481,.T.);
#264=ORIENTED_EDGE('',*,*,#482,.F.);
#265=ORIENTED_EDGE('',*,*,#483,.T.);
#266=ORIENTED_EDGE('',*,*,#484,.T.);
#267=ORIENTED_EDGE('',*,*,#485,.T.);
#268=ORIENTED_EDGE('',*,*,#486,.F.);
#269=ORIENTED_EDGE('',*,*,#487,.T.);
#270=ORIENTED_EDGE('',*,*,#488,.T.);
#271=ORIENTED_EDGE('',*,*,#489,.T.);
#272=ORIENTED_EDGE('',*,*,#490,.F.);
#273=ORIENTED_EDGE('',*,*,#491,.T.);
#274=ORIENTED_EDGE('',*,*,#492,.T.);
#275=ORIENTED_EDGE('',*,*,#493,.T.);
#276=ORIENTED_EDGE('',*,*,#494,.F.);
#277=ORIENTED_EDGE('',*,*,#495,.T.);
#278=ORIENTED_EDGE('',*,*,#490,.T.);
#279=ORIENTED_EDGE('',*,*,#496,.T.);
#280=ORIENTED_EDGE('',*,*,#492,.F.);
#281=ORIENTED_EDGE('',*,*,#497,.T.);
#282=ORIENTED_EDGE('',*,*,#457,.F.);
#283=ORIENTED_EDGE('',*,*,#498,.T.);
#284=ORIENTED_EDGE('',*,*,#486,.T.);
#285=ORIENTED_EDGE('',*,*,#499,.T.);
#286=ORIENTED_EDGE('',*,*,#494,.T.);
#287=ORIENTED_EDGE('',*,*,#500,.T.);
#288=ORIENTED_EDGE('',*,*,#461,.F.);
#289=ORIENTED_EDGE('',*,*,#501,.T.);
#290=ORIENTED_EDGE('',*,*,#484,.F.);
#291=ORIENTED_EDGE('',*,*,#502,.T.);
#292=ORIENTED_EDGE('',*,*,#482,.T.);
#293=ORIENTED_EDGE('',*,*,#503,.T.);
#294=ORIENTED_EDGE('',*,*,#504,.T.);
#295=ORIENTED_EDGE('',*,*,#451,.T.);
#296=ORIENTED_EDGE('',*,*,#505,.T.);
#297=ORIENTED_EDGE('',*,*,#449,.T.);
#298=ORIENTED_EDGE('',*,*,#476,.T.);
#299=ORIENTED_EDGE('',*,*,#479,.T.);
#300=ORIENTED_EDGE('',*,*,#506,.T.);
#301=ORIENTED_EDGE('',*,*,#480,.F.);
#302=ORIENTED_EDGE('',*,*,#507,.T.);
#303=ORIENTED_EDGE('',*,*,#508,.T.);
#304=ORIENTED_EDGE('',*,*,#509,.T.);
#305=ORIENTED_EDGE('',*,*,#510,.T.);
#306=ORIENTED_EDGE('',*,*,#511,.T.);
#307=ORIENTED_EDGE('',*,*,#512,.T.);
#308=ORIENTED_EDGE('',*,*,#459,.T.);
#309=ORIENTED_EDGE('',*,*,#513,.T.);
#310=ORIENTED_EDGE('',*,*,#514,.T.);
#311=ORIENTED_EDGE('',*,*,#515,.T.);
#312=ORIENTED_EDGE('',*,*,#516,.T.);
#313=ORIENTED_EDGE('',*,*,#517,.T.);
#314=ORIENTED_EDGE('',*,*,#518,.T.);
#315=ORIENTED_EDGE('',*,*,#519,.T.);
#316=ORIENTED_EDGE('',*,*,#520,.T.);
#317=ORIENTED_EDGE('',*,*,#521,.T.);
#318=ORIENTED_EDGE('',*,*,#477,.T.);
#319=ORIENTED_EDGE('',*,*,#470,.T.);
#320=ORIENTED_EDGE('',*,*,#522,.F.);
#321=ORIENTED_EDGE('',*,*,#523,.T.);
#322=ORIENTED_EDGE('',*,*,#524,.T.);
#323=ORIENTED_EDGE('',*,*,#468,.T.);
#324=ORIENTED_EDGE('',*,*,#525,.T.);
#325=ORIENTED_EDGE('',*,*,#526,.T.);
#326=ORIENTED_EDGE('',*,*,#527,.T.);
#327=ORIENTED_EDGE('',*,*,#453,.T.);
#328=ORIENTED_EDGE('',*,*,#512,.F.);
#329=ORIENTED_EDGE('',*,*,#528,.T.);
#330=ORIENTED_EDGE('',*,*,#523,.F.);
#331=ORIENTED_EDGE('',*,*,#508,.F.);
#332=ORIENTED_EDGE('',*,*,#529,.T.);
#333=ORIENTED_EDGE('',*,*,#509,.F.);
#334=ORIENTED_EDGE('',*,*,#452,.F.);
#335=ORIENTED_EDGE('',*,*,#511,.F.);
#336=ORIENTED_EDGE('',*,*,#530,.T.);
#337=ORIENTED_EDGE('',*,*,#518,.F.);
#338=ORIENTED_EDGE('',*,*,#531,.F.);
#339=ORIENTED_EDGE('',*,*,#531,.T.);
#340=ORIENTED_EDGE('',*,*,#517,.F.);
#341=ORIENTED_EDGE('',*,*,#532,.F.);
#342=ORIENTED_EDGE('',*,*,#528,.F.);
#343=ORIENTED_EDGE('',*,*,#532,.T.);
#344=ORIENTED_EDGE('',*,*,#516,.F.);
#345=ORIENTED_EDGE('',*,*,#533,.F.);
#346=ORIENTED_EDGE('',*,*,#524,.F.);
#347=ORIENTED_EDGE('',*,*,#533,.T.);
#348=ORIENTED_EDGE('',*,*,#515,.F.);
#349=ORIENTED_EDGE('',*,*,#534,.F.);
#350=ORIENTED_EDGE('',*,*,#469,.F.);
#351=ORIENTED_EDGE('',*,*,#514,.F.);
#352=ORIENTED_EDGE('',*,*,#535,.T.);
#353=ORIENTED_EDGE('',*,*,#520,.F.);
#354=ORIENTED_EDGE('',*,*,#534,.T.);
#355=ORIENTED_EDGE('',*,*,#536,.T.);
#356=ORIENTED_EDGE('',*,*,#537,.T.);
#357=ORIENTED_EDGE('',*,*,#488,.F.);
#358=ORIENTED_EDGE('',*,*,#538,.T.);
#359=ORIENTED_EDGE('',*,*,#539,.T.);
#360=ORIENTED_EDGE('',*,*,#525,.F.);
#361=ORIENTED_EDGE('',*,*,#522,.T.);
#362=ORIENTED_EDGE('',*,*,#467,.F.);
#363=ORIENTED_EDGE('',*,*,#540,.T.);
#364=ORIENTED_EDGE('',*,*,#541,.T.);
#365=ORIENTED_EDGE('',*,*,#542,.T.);
#366=ORIENTED_EDGE('',*,*,#454,.F.);
#367=ORIENTED_EDGE('',*,*,#527,.F.);
#368=ORIENTED_EDGE('',*,*,#463,.T.);
#369=ORIENTED_EDGE('',*,*,#543,.T.);
#370=ORIENTED_EDGE('',*,*,#544,.T.);
#371=ORIENTED_EDGE('',*,*,#472,.T.);
#372=ORIENTED_EDGE('',*,*,#447,.T.);
#373=ORIENTED_EDGE('',*,*,#456,.T.);
#374=ORIENTED_EDGE('',*,*,#545,.T.);
#375=ORIENTED_EDGE('',*,*,#546,.T.);
#376=ORIENTED_EDGE('',*,*,#547,.T.);
#377=ORIENTED_EDGE('',*,*,#548,.T.);
#378=ORIENTED_EDGE('',*,*,#549,.T.);
#379=ORIENTED_EDGE('',*,*,#465,.T.);
#380=ORIENTED_EDGE('',*,*,#474,.T.);
#381=ORIENTED_EDGE('',*,*,#549,.F.);
#382=ORIENTED_EDGE('',*,*,#550,.T.);
#383=ORIENTED_EDGE('',*,*,#536,.F.);
#384=ORIENTED_EDGE('',*,*,#466,.F.);
#385=ORIENTED_EDGE('',*,*,#539,.F.);
#386=ORIENTED_EDGE('',*,*,#551,.T.);
#387=ORIENTED_EDGE('',*,*,#540,.F.);
#388=ORIENTED_EDGE('',*,*,#526,.F.);
#389=ORIENTED_EDGE('',*,*,#544,.F.);
#390=ORIENTED_EDGE('',*,*,#552,.T.);
#391=ORIENTED_EDGE('',*,*,#547,.F.);
#392=ORIENTED_EDGE('',*,*,#473,.F.);
#393=ORIENTED_EDGE('',*,*,#542,.F.);
#394=ORIENTED_EDGE('',*,*,#553,.T.);
#395=ORIENTED_EDGE('',*,*,#545,.F.);
#396=ORIENTED_EDGE('',*,*,#455,.F.);
#397=ORIENTED_EDGE('',*,*,#543,.F.);
#398=ORIENTED_EDGE('',*,*,#462,.F.);
#399=ORIENTED_EDGE('',*,*,#500,.F.);
#400=ORIENTED_EDGE('',*,*,#493,.F.);
#401=ORIENTED_EDGE('',*,*,#496,.F.);
#402=ORIENTED_EDGE('',*,*,#489,.F.);
#403=ORIENTED_EDGE('',*,*,#537,.F.);
#404=ORIENTED_EDGE('',*,*,#550,.F.);
#405=ORIENTED_EDGE('',*,*,#548,.F.);
#406=ORIENTED_EDGE('',*,*,#552,.F.);
#407=ORIENTED_EDGE('',*,*,#499,.F.);
#408=ORIENTED_EDGE('',*,*,#485,.F.);
#409=ORIENTED_EDGE('',*,*,#501,.F.);
#410=ORIENTED_EDGE('',*,*,#464,.F.);
#411=ORIENTED_EDGE('',*,*,#546,.F.);
#412=ORIENTED_EDGE('',*,*,#553,.F.);
#413=ORIENTED_EDGE('',*,*,#541,.F.);
#414=ORIENTED_EDGE('',*,*,#551,.F.);
#415=ORIENTED_EDGE('',*,*,#538,.F.);
#416=ORIENTED_EDGE('',*,*,#491,.F.);
#417=ORIENTED_EDGE('',*,*,#497,.F.);
#418=ORIENTED_EDGE('',*,*,#495,.F.);
#419=ORIENTED_EDGE('',*,*,#503,.F.);
#420=ORIENTED_EDGE('',*,*,#481,.F.);
#421=ORIENTED_EDGE('',*,*,#506,.F.);
#422=ORIENTED_EDGE('',*,*,#478,.F.);
#423=ORIENTED_EDGE('',*,*,#521,.F.);
#424=ORIENTED_EDGE('',*,*,#535,.F.);
#425=ORIENTED_EDGE('',*,*,#513,.F.);
#426=ORIENTED_EDGE('',*,*,#458,.F.);
#427=ORIENTED_EDGE('',*,*,#507,.F.);
#428=ORIENTED_EDGE('',*,*,#483,.F.);
#429=ORIENTED_EDGE('',*,*,#502,.F.);
#430=ORIENTED_EDGE('',*,*,#487,.F.);
#431=ORIENTED_EDGE('',*,*,#498,.F.);
#432=ORIENTED_EDGE('',*,*,#460,.F.);
#433=ORIENTED_EDGE('',*,*,#519,.F.);
#434=ORIENTED_EDGE('',*,*,#530,.F.);
#435=ORIENTED_EDGE('',*,*,#510,.F.);
#436=ORIENTED_EDGE('',*,*,#529,.F.);
#437=ORIENTED_EDGE('',*,*,#554,.F.);
#438=ORIENTED_EDGE('',*,*,#450,.T.);
#439=ORIENTED_EDGE('',*,*,#445,.T.);
#440=ORIENTED_EDGE('',*,*,#505,.F.);
#441=ORIENTED_EDGE('',*,*,#554,.T.);
#442=ORIENTED_EDGE('',*,*,#504,.F.);
#443=ORIENTED_EDGE('',*,*,#555,.F.);
#444=ORIENTED_EDGE('',*,*,#555,.T.);
#445=EDGE_CURVE('',#556,#557,#629,.T.);
#446=EDGE_CURVE('',#556,#558,#199,.T.);
#447=EDGE_CURVE('',#559,#558,#49,.T.);
#448=EDGE_CURVE('',#560,#559,#200,.T.);
#449=EDGE_CURVE('',#557,#560,#50,.T.);
#450=EDGE_CURVE('',#561,#556,#630,.T.);
#451=EDGE_CURVE('',#562,#561,#201,.T.);
#452=EDGE_CURVE('',#562,#563,#202,.T.);
#453=EDGE_CURVE('',#564,#563,#203,.F.);
#454=EDGE_CURVE('',#564,#565,#631,.T.);
#455=EDGE_CURVE('',#565,#566,#632,.T.);
#456=EDGE_CURVE('',#558,#566,#204,.F.);
#457=EDGE_CURVE('',#567,#568,#51,.T.);
#458=EDGE_CURVE('',#568,#569,#52,.T.);
#459=EDGE_CURVE('',#570,#569,#53,.T.);
#460=EDGE_CURVE('',#570,#567,#54,.T.);
#461=EDGE_CURVE('',#571,#572,#55,.T.);
#462=EDGE_CURVE('',#572,#573,#56,.T.);
#463=EDGE_CURVE('',#574,#573,#57,.T.);
#464=EDGE_CURVE('',#574,#571,#58,.T.);
#465=EDGE_CURVE('',#575,#576,#59,.T.);
#466=EDGE_CURVE('',#575,#577,#12,.F.);
#467=EDGE_CURVE('',#577,#578,#205,.F.);
#468=EDGE_CURVE('',#579,#578,#60,.F.);
#469=EDGE_CURVE('',#579,#580,#206,.T.);
#470=EDGE_CURVE('',#581,#580,#61,.T.);
#471=EDGE_CURVE('',#581,#576,#207,.F.);
#472=EDGE_CURVE('',#582,#559,#208,.F.);
#473=EDGE_CURVE('',#582,#583,#633,.T.);
#474=EDGE_CURVE('',#576,#583,#634,.T.);
#475=EDGE_CURVE('',#584,#581,#209,.T.);
#476=EDGE_CURVE('',#560,#584,#210,.T.);
#477=EDGE_CURVE('',#585,#581,#62,.F.);
#478=EDGE_CURVE('',#585,#586,#13,.F.);
#479=EDGE_CURVE('',#584,#586,#63,.T.);
#480=EDGE_CURVE('',#587,#588,#64,.T.);
#481=EDGE_CURVE('',#588,#589,#65,.T.);
#482=EDGE_CURVE('',#590,#589,#66,.T.);
#483=EDGE_CURVE('',#590,#587,#67,.T.);
#484=EDGE_CURVE('',#591,#592,#68,.T.);
#485=EDGE_CURVE('',#592,#593,#69,.T.);
#486=EDGE_CURVE('',#594,#593,#70,.T.);
#487=EDGE_CURVE('',#594,#591,#71,.T.);
#488=EDGE_CURVE('',#595,#596,#72,.T.);
#489=EDGE_CURVE('',#596,#597,#73,.T.);
#490=EDGE_CURVE('',#598,#597,#74,.T.);
#491=EDGE_CURVE('',#598,#595,#75,.T.);
#492=EDGE_CURVE('',#599,#600,#76,.T.);
#493=EDGE_CURVE('',#600,#601,#77,.T.);
#494=EDGE_CURVE('',#602,#601,#78,.T.);
#495=EDGE_CURVE('',#602,#599,#79,.T.);
#496=EDGE_CURVE('',#597,#600,#80,.T.);
#497=EDGE_CURVE('',#599,#568,#81,.F.);
#498=EDGE_CURVE('',#567,#594,#82,.T.);
#499=EDGE_CURVE('',#593,#598,#83,.F.);
#500=EDGE_CURVE('',#601,#572,#84,.T.);
#501=EDGE_CURVE('',#571,#592,#85,.F.);
#502=EDGE_CURVE('',#591,#590,#86,.T.);
#503=EDGE_CURVE('',#589,#602,#87,.F.);
#504=EDGE_CURVE('',#603,#603,#211,.F.);
#505=EDGE_CURVE('',#561,#557,#212,.F.);
#506=EDGE_CURVE('',#586,#588,#88,.F.);
#507=EDGE_CURVE('',#587,#604,#89,.T.);
#508=EDGE_CURVE('',#604,#562,#90,.F.);
#509=EDGE_CURVE('',#563,#605,#91,.T.);
#510=EDGE_CURVE('',#605,#606,#92,.T.);
#511=EDGE_CURVE('',#606,#607,#93,.F.);
#512=EDGE_CURVE('',#607,#563,#94,.F.);
#513=EDGE_CURVE('',#569,#608,#95,.F.);
#514=EDGE_CURVE('',#608,#609,#96,.F.);
#515=EDGE_CURVE('',#609,#610,#213,.F.);
#516=EDGE_CURVE('',#610,#611,#97,.F.);
#517=EDGE_CURVE('',#611,#612,#214,.F.);
#518=EDGE_CURVE('',#612,#613,#98,.T.);
#519=EDGE_CURVE('',#613,#570,#99,.T.);
#520=EDGE_CURVE('',#580,#614,#100,.T.);
#521=EDGE_CURVE('',#614,#585,#101,.F.);
#522=EDGE_CURVE('',#615,#578,#102,.T.);
#523=EDGE_CURVE('',#615,#616,#103,.T.);
#524=EDGE_CURVE('',#616,#579,#104,.T.);
#525=EDGE_CURVE('',#615,#617,#215,.F.);
#526=EDGE_CURVE('',#617,#618,#14,.T.);
#527=EDGE_CURVE('',#618,#564,#105,.F.);
#528=EDGE_CURVE('',#607,#616,#216,.T.);
#529=EDGE_CURVE('',#604,#605,#15,.T.);
#530=EDGE_CURVE('',#606,#613,#16,.T.);
#531=EDGE_CURVE('',#607,#612,#217,.T.);
#532=EDGE_CURVE('',#616,#611,#218,.T.);
#533=EDGE_CURVE('',#579,#610,#219,.T.);
#534=EDGE_CURVE('',#580,#609,#220,.T.);
#535=EDGE_CURVE('',#608,#614,#17,.F.);
#536=EDGE_CURVE('',#577,#619,#106,.T.);
#537=EDGE_CURVE('',#619,#596,#107,.T.);
#538=EDGE_CURVE('',#595,#620,#108,.F.);
#539=EDGE_CURVE('',#620,#617,#109,.T.);
#540=EDGE_CURVE('',#618,#621,#110,.T.);
#541=EDGE_CURVE('',#621,#622,#111,.F.);
#542=EDGE_CURVE('',#622,#565,#112,.T.);
#543=EDGE_CURVE('',#573,#623,#113,.T.);
#544=EDGE_CURVE('',#623,#582,#114,.T.);
#545=EDGE_CURVE('',#566,#624,#115,.T.);
#546=EDGE_CURVE('',#624,#574,#116,.F.);
#547=EDGE_CURVE('',#583,#625,#117,.T.);
#548=EDGE_CURVE('',#625,#626,#118,.T.);
#549=EDGE_CURVE('',#626,#575,#119,.T.);
#550=EDGE_CURVE('',#626,#619,#120,.T.);
#551=EDGE_CURVE('',#620,#621,#121,.T.);
#552=EDGE_CURVE('',#623,#625,#122,.F.);
#553=EDGE_CURVE('',#622,#624,#123,.F.);
#554=EDGE_CURVE('',#627,#627,#221,.T.);
#555=EDGE_CURVE('',#628,#628,#222,.T.);
#556=VERTEX_POINT('',#1083);
#557=VERTEX_POINT('',#1084);
#558=VERTEX_POINT('',#1086);
#559=VERTEX_POINT('',#1088);
#560=VERTEX_POINT('',#1090);
#561=VERTEX_POINT('',#1098);
#562=VERTEX_POINT('',#1100);
#563=VERTEX_POINT('',#1102);
#564=VERTEX_POINT('',#1104);
#565=VERTEX_POINT('',#1109);
#566=VERTEX_POINT('',#1115);
#567=VERTEX_POINT('',#1119);
#568=VERTEX_POINT('',#1120);
#569=VERTEX_POINT('',#1122);
#570=VERTEX_POINT('',#1124);
#571=VERTEX_POINT('',#1128);
#572=VERTEX_POINT('',#1129);
#573=VERTEX_POINT('',#1131);
#574=VERTEX_POINT('',#1133);
#575=VERTEX_POINT('',#1137);
#576=VERTEX_POINT('',#1138);
#577=VERTEX_POINT('',#1140);
#578=VERTEX_POINT('',#1142);
#579=VERTEX_POINT('',#1144);
#580=VERTEX_POINT('',#1146);
#581=VERTEX_POINT('',#1148);
#582=VERTEX_POINT('',#1152);
#583=VERTEX_POINT('',#1158);
#584=VERTEX_POINT('',#1164);
#585=VERTEX_POINT('',#1168);
#586=VERTEX_POINT('',#1170);
#587=VERTEX_POINT('',#1174);
#588=VERTEX_POINT('',#1175);
#589=VERTEX_POINT('',#1177);
#590=VERTEX_POINT('',#1179);
#591=VERTEX_POINT('',#1183);
#592=VERTEX_POINT('',#1184);
#593=VERTEX_POINT('',#1186);
#594=VERTEX_POINT('',#1188);
#595=VERTEX_POINT('',#1192);
#596=VERTEX_POINT('',#1193);
#597=VERTEX_POINT('',#1195);
#598=VERTEX_POINT('',#1197);
#599=VERTEX_POINT('',#1201);
#600=VERTEX_POINT('',#1202);
#601=VERTEX_POINT('',#1204);
#602=VERTEX_POINT('',#1206);
#603=VERTEX_POINT('',#1220);
#604=VERTEX_POINT('',#1224);
#605=VERTEX_POINT('',#1228);
#606=VERTEX_POINT('',#1230);
#607=VERTEX_POINT('',#1232);
#608=VERTEX_POINT('',#1236);
#609=VERTEX_POINT('',#1238);
#610=VERTEX_POINT('',#1240);
#611=VERTEX_POINT('',#1242);
#612=VERTEX_POINT('',#1244);
#613=VERTEX_POINT('',#1246);
#614=VERTEX_POINT('',#1250);
#615=VERTEX_POINT('',#1254);
#616=VERTEX_POINT('',#1256);
#617=VERTEX_POINT('',#1260);
#618=VERTEX_POINT('',#1262);
#619=VERTEX_POINT('',#1280);
#620=VERTEX_POINT('',#1283);
#621=VERTEX_POINT('',#1287);
#622=VERTEX_POINT('',#1289);
#623=VERTEX_POINT('',#1293);
#624=VERTEX_POINT('',#1296);
#625=VERTEX_POINT('',#1300);
#626=VERTEX_POINT('',#1302);
#627=VERTEX_POINT('',#1318);
#628=VERTEX_POINT('',#1322);
#629=B_SPLINE_CURVE_WITH_KNOTS('',3,(#1079,#1080,#1081,#1082),
 .UNSPECIFIED.,.F.,.F.,(4,4),(0.,0.00047206008836774),.UNSPECIFIED.);
#630=B_SPLINE_CURVE_WITH_KNOTS('',3,(#1093,#1094,#1095,#1096,#1097),
 .UNSPECIFIED.,.F.,.F.,(4,1,4),(0.000670814725489835,0.00210037550627491,
0.00352993628705999),.UNSPECIFIED.);
#631=B_SPLINE_CURVE_WITH_KNOTS('',3,(#1105,#1106,#1107,#1108),
 .UNSPECIFIED.,.F.,.F.,(4,4),(1.85739666770788E-5,6.8813414555418E-5),
 .UNSPECIFIED.);
#632=B_SPLINE_CURVE_WITH_KNOTS('',3,(#1110,#1111,#1112,#1113,#1114),
 .UNSPECIFIED.,.F.,.F.,(4,1,4),(0.,0.000670396983425977,0.00134079396685195),
 .UNSPECIFIED.);
#633=B_SPLINE_CURVE_WITH_KNOTS('',3,(#1153,#1154,#1155,#1156,#1157),
 .UNSPECIFIED.,.F.,.F.,(4,1,4),(0.,0.000675965898642336,0.00135193179728467),
 .UNSPECIFIED.);
#634=B_SPLINE_CURVE_WITH_KNOTS('',3,(#1159,#1160,#1161,#1162),
 .UNSPECIFIED.,.F.,.F.,(4,4),(1.85739666770788E-5,6.88134145560248E-5),
 .UNSPECIFIED.);
#635=EDGE_LOOP('',(#223,#224,#225,#226,#227));
#636=EDGE_LOOP('',(#228,#229,#230,#231,#232,#233,#234,#235));
#637=EDGE_LOOP('',(#236,#237,#238,#239));
#638=EDGE_LOOP('',(#240,#241,#242,#243));
#639=EDGE_LOOP('',(#244,#245,#246,#247,#248,#249,#250));
#640=EDGE_LOOP('',(#251,#252,#253,#254,#255,#256,#257));
#641=EDGE_LOOP('',(#258,#259,#260,#261));
#642=EDGE_LOOP('',(#262,#263,#264,#265));
#643=EDGE_LOOP('',(#266,#267,#268,#269));
#644=EDGE_LOOP('',(#270,#271,#272,#273));
#645=EDGE_LOOP('',(#274,#275,#276,#277));
#646=EDGE_LOOP('',(#278,#279,#280,#281,#282,#283,#284,#285));
#647=EDGE_LOOP('',(#286,#287,#288,#289,#290,#291,#292,#293));
#648=EDGE_LOOP('',(#294));
#649=EDGE_LOOP('',(#295,#296,#297,#298,#299,#300,#301,#302,#303));
#650=EDGE_LOOP('',(#304,#305,#306,#307));
#651=EDGE_LOOP('',(#308,#309,#310,#311,#312,#313,#314,#315));
#652=EDGE_LOOP('',(#316,#317,#318,#319));
#653=EDGE_LOOP('',(#320,#321,#322,#323));
#654=EDGE_LOOP('',(#324,#325,#326,#327,#328,#329,#330));
#655=EDGE_LOOP('',(#331,#332,#333,#334));
#656=EDGE_LOOP('',(#335,#336,#337,#338));
#657=EDGE_LOOP('',(#339,#340,#341,#342));
#658=EDGE_LOOP('',(#343,#344,#345,#346));
#659=EDGE_LOOP('',(#347,#348,#349,#350));
#660=EDGE_LOOP('',(#351,#352,#353,#354));
#661=EDGE_LOOP('',(#355,#356,#357,#358,#359,#360,#361,#362));
#662=EDGE_LOOP('',(#363,#364,#365,#366,#367));
#663=EDGE_LOOP('',(#368,#369,#370,#371,#372,#373,#374,#375));
#664=EDGE_LOOP('',(#376,#377,#378,#379,#380));
#665=EDGE_LOOP('',(#381,#382,#383,#384));
#666=EDGE_LOOP('',(#385,#386,#387,#388));
#667=EDGE_LOOP('',(#389,#390,#391,#392));
#668=EDGE_LOOP('',(#393,#394,#395,#396));
#669=EDGE_LOOP('',(#397,#398,#399,#400,#401,#402,#403,#404,#405,#406));
#670=EDGE_LOOP('',(#407,#408,#409,#410,#411,#412,#413,#414,#415,#416));
#671=EDGE_LOOP('',(#417,#418,#419,#420,#421,#422,#423,#424,#425,#426));
#672=EDGE_LOOP('',(#427,#428,#429,#430,#431,#432,#433,#434,#435,#436));
#673=EDGE_LOOP('',(#437));
#674=EDGE_LOOP('',(#438,#439,#440));
#675=EDGE_LOOP('',(#441));
#676=EDGE_LOOP('',(#442));
#677=EDGE_LOOP('',(#443));
#678=EDGE_LOOP('',(#444));
#679=FACE_BOUND('',#635,.T.);
#680=FACE_BOUND('',#636,.T.);
#681=FACE_BOUND('',#637,.T.);
#682=FACE_BOUND('',#638,.T.);
#683=FACE_BOUND('',#639,.T.);
#684=FACE_BOUND('',#640,.T.);
#685=FACE_BOUND('',#641,.T.);
#686=FACE_BOUND('',#642,.T.);
#687=FACE_BOUND('',#643,.T.);
#688=FACE_BOUND('',#644,.T.);
#689=FACE_BOUND('',#645,.T.);
#690=FACE_BOUND('',#646,.T.);
#691=FACE_BOUND('',#647,.T.);
#692=FACE_BOUND('',#648,.T.);
#693=FACE_BOUND('',#649,.T.);
#694=FACE_BOUND('',#650,.T.);
#695=FACE_BOUND('',#651,.T.);
#696=FACE_BOUND('',#652,.T.);
#697=FACE_BOUND('',#653,.T.);
#698=FACE_BOUND('',#654,.T.);
#699=FACE_BOUND('',#655,.T.);
#700=FACE_BOUND('',#656,.T.);
#701=FACE_BOUND('',#657,.T.);
#702=FACE_BOUND('',#658,.T.);
#703=FACE_BOUND('',#659,.T.);
#704=FACE_BOUND('',#660,.T.);
#705=FACE_BOUND('',#661,.T.);
#706=FACE_BOUND('',#662,.T.);
#707=FACE_BOUND('',#663,.T.);
#708=FACE_BOUND('',#664,.T.);
#709=FACE_BOUND('',#665,.T.);
#710=FACE_BOUND('',#666,.T.);
#711=FACE_BOUND('',#667,.T.);
#712=FACE_BOUND('',#668,.T.);
#713=FACE_BOUND('',#669,.T.);
#714=FACE_BOUND('',#670,.T.);
#715=FACE_BOUND('',#671,.T.);
#716=FACE_BOUND('',#672,.T.);
#717=FACE_BOUND('',#673,.T.);
#718=FACE_BOUND('',#674,.T.);
#719=FACE_BOUND('',#675,.T.);
#720=FACE_BOUND('',#676,.T.);
#721=FACE_BOUND('',#677,.T.);
#722=FACE_BOUND('',#678,.T.);
#723=CYLINDRICAL_SURFACE('',#787,0.001);
#724=CYLINDRICAL_SURFACE('',#797,0.003);
#725=CYLINDRICAL_SURFACE('',#806,0.001);
#726=CYLINDRICAL_SURFACE('',#823,0.003);
#727=CYLINDRICAL_SURFACE('',#827,0.001);
#728=CYLINDRICAL_SURFACE('',#829,0.001);
#729=CYLINDRICAL_SURFACE('',#834,0.001);
#730=CYLINDRICAL_SURFACE('',#838,0.001);
#731=CYLINDRICAL_SURFACE('',#852,0.0015);
#732=CYLINDRICAL_SURFACE('',#855,0.0015);
#733=ADVANCED_FACE('',(#679),#723,.F.);
#734=ADVANCED_FACE('',(#680),#45,.F.);
#735=ADVANCED_FACE('',(#681),#18,.T.);
#736=ADVANCED_FACE('',(#682),#19,.F.);
#737=ADVANCED_FACE('',(#683),#724,.F.);
#738=ADVANCED_FACE('',(#684),#46,.F.);
#739=ADVANCED_FACE('',(#685),#725,.F.);
#740=ADVANCED_FACE('',(#686),#20,.T.);
#741=ADVANCED_FACE('',(#687),#21,.F.);
#742=ADVANCED_FACE('',(#688),#22,.F.);
#743=ADVANCED_FACE('',(#689),#23,.T.);
#744=ADVANCED_FACE('',(#690),#24,.T.);
#745=ADVANCED_FACE('',(#691),#25,.F.);
#746=ADVANCED_FACE('',(#692,#693),#26,.T.);
#747=ADVANCED_FACE('',(#694),#27,.F.);
#748=ADVANCED_FACE('',(#695),#28,.F.);
#749=ADVANCED_FACE('',(#696),#29,.T.);
#750=ADVANCED_FACE('',(#697),#30,.T.);
#751=ADVANCED_FACE('',(#698),#726,.F.);
#752=ADVANCED_FACE('',(#699),#727,.F.);
#753=ADVANCED_FACE('',(#700),#728,.F.);
#754=ADVANCED_FACE('',(#701),#47,.F.);
#755=ADVANCED_FACE('',(#702),#729,.F.);
#756=ADVANCED_FACE('',(#703),#48,.F.);
#757=ADVANCED_FACE('',(#704),#730,.F.);
#758=ADVANCED_FACE('',(#705),#31,.F.);
#759=ADVANCED_FACE('',(#706),#32,.F.);
#760=ADVANCED_FACE('',(#707),#33,.T.);
#761=ADVANCED_FACE('',(#708),#34,.T.);
#762=ADVANCED_FACE('',(#709),#35,.F.);
#763=ADVANCED_FACE('',(#710),#36,.T.);
#764=ADVANCED_FACE('',(#711),#37,.T.);
#765=ADVANCED_FACE('',(#712),#38,.F.);
#766=ADVANCED_FACE('',(#713),#39,.T.);
#767=ADVANCED_FACE('',(#714),#40,.F.);
#768=ADVANCED_FACE('',(#715),#41,.F.);
#769=ADVANCED_FACE('',(#716),#42,.T.);
#770=ADVANCED_FACE('',(#717,#718),#731,.T.);
#771=ADVANCED_FACE('',(#719),#43,.T.);
#772=ADVANCED_FACE('',(#720,#721),#732,.T.);
#773=ADVANCED_FACE('',(#722),#44,.T.);
#774=CLOSED_SHELL('',(#733,#734,#735,#736,#737,#738,#739,#740,#741,#742,
#743,#744,#745,#746,#747,#748,#749,#750,#751,#752,#753,#754,#755,#756,#757,
#758,#759,#760,#761,#762,#763,#764,#765,#766,#767,#768,#769,#770,#771,#772,
#773));
#775=STYLED_ITEM('',(#776),#783);
#776=PRESENTATION_STYLE_ASSIGNMENT((#777));
#777=SURFACE_STYLE_USAGE(.BOTH.,#778);
#778=SURFACE_SIDE_STYLE('',(#779));
#779=SURFACE_STYLE_FILL_AREA(#780);
#780=FILL_AREA_STYLE('',(#781));
#781=FILL_AREA_STYLE_COLOUR('',#782);
#782=COLOUR_RGB('',0.615686274509804,0.811764705882353,0.929411764705882);
#783=MANIFOLD_SOLID_BREP('Part 1',#774);
#784=SHAPE_DEFINITION_REPRESENTATION(#1330,#785);
#785=SHAPE_REPRESENTATION('Part 1',(#786),#1325);
#786=AXIS2_PLACEMENT_3D('',#1077,#858,#859);
#787=AXIS2_PLACEMENT_3D('',#1078,#860,#861);
#788=AXIS2_PLACEMENT_3D('',#1085,#862,#863);
#789=AXIS2_PLACEMENT_3D('',#1089,#865,#866);
#790=AXIS2_PLACEMENT_3D('',#1092,#868,#869);
#791=AXIS2_PLACEMENT_3D('',#1099,#870,#871);
#792=AXIS2_PLACEMENT_3D('',#1101,#872,#873);
#793=AXIS2_PLACEMENT_3D('',#1103,#874,#875);
#794=AXIS2_PLACEMENT_3D('',#1116,#876,#877);
#795=AXIS2_PLACEMENT_3D('',#1117,#878,#879);
#796=AXIS2_PLACEMENT_3D('',#1126,#884,#885);
#797=AXIS2_PLACEMENT_3D('',#1135,#890,#891);
#798=AXIS2_PLACEMENT_3D('',#1139,#893,#894);
#799=AXIS2_PLACEMENT_3D('',#1141,#895,#896);
#800=AXIS2_PLACEMENT_3D('',#1145,#898,#899);
#801=AXIS2_PLACEMENT_3D('',#1149,#901,#902);
#802=AXIS2_PLACEMENT_3D('',#1150,#903,#904);
#803=AXIS2_PLACEMENT_3D('',#1151,#905,#906);
#804=AXIS2_PLACEMENT_3D('',#1163,#907,#908);
#805=AXIS2_PLACEMENT_3D('',#1165,#909,#910);
#806=AXIS2_PLACEMENT_3D('',#1166,#911,#912);
#807=AXIS2_PLACEMENT_3D('',#1169,#914,#915);
#808=AXIS2_PLACEMENT_3D('',#1172,#917,#918);
#809=AXIS2_PLACEMENT_3D('',#1181,#923,#924);
#810=AXIS2_PLACEMENT_3D('',#1190,#929,#930);
#811=AXIS2_PLACEMENT_3D('',#1199,#935,#936);
#812=AXIS2_PLACEMENT_3D('',#1208,#941,#942);
#813=AXIS2_PLACEMENT_3D('',#1213,#947,#948);
#814=AXIS2_PLACEMENT_3D('',#1218,#953,#954);
#815=AXIS2_PLACEMENT_3D('',#1219,#955,#956);
#816=AXIS2_PLACEMENT_3D('',#1221,#957,#958);
#817=AXIS2_PLACEMENT_3D('',#1226,#962,#963);
#818=AXIS2_PLACEMENT_3D('',#1234,#968,#969);
#819=AXIS2_PLACEMENT_3D('',#1239,#972,#973);
#820=AXIS2_PLACEMENT_3D('',#1243,#975,#976);
#821=AXIS2_PLACEMENT_3D('',#1248,#979,#980);
#822=AXIS2_PLACEMENT_3D('',#1252,#983,#984);
#823=AXIS2_PLACEMENT_3D('',#1258,#988,#989);
#824=AXIS2_PLACEMENT_3D('',#1259,#990,#991);
#825=AXIS2_PLACEMENT_3D('',#1261,#992,#993);
#826=AXIS2_PLACEMENT_3D('',#1264,#995,#996);
#827=AXIS2_PLACEMENT_3D('',#1265,#997,#998);
#828=AXIS2_PLACEMENT_3D('',#1266,#999,#1000);
#829=AXIS2_PLACEMENT_3D('',#1267,#1001,#1002);
#830=AXIS2_PLACEMENT_3D('',#1268,#1003,#1004);
#831=AXIS2_PLACEMENT_3D('',#1269,#1005,#1006);
#832=AXIS2_PLACEMENT_3D('',#1270,#1007,#1008);
#833=AXIS2_PLACEMENT_3D('',#1271,#1009,#1010);
#834=AXIS2_PLACEMENT_3D('',#1272,#1011,#1012);
#835=AXIS2_PLACEMENT_3D('',#1273,#1013,#1014);
#836=AXIS2_PLACEMENT_3D('',#1274,#1015,#1016);
#837=AXIS2_PLACEMENT_3D('',#1275,#1017,#1018);
#838=AXIS2_PLACEMENT_3D('',#1276,#1019,#1020);
#839=AXIS2_PLACEMENT_3D('',#1277,#1021,#1022);
#840=AXIS2_PLACEMENT_3D('',#1278,#1023,#1024);
#841=AXIS2_PLACEMENT_3D('',#1285,#1029,#1030);
#842=AXIS2_PLACEMENT_3D('',#1291,#1034,#1035);
#843=AXIS2_PLACEMENT_3D('',#1298,#1040,#1041);
#844=AXIS2_PLACEMENT_3D('',#1304,#1045,#1046);
#845=AXIS2_PLACEMENT_3D('',#1306,#1048,#1049);
#846=AXIS2_PLACEMENT_3D('',#1308,#1051,#1052);
#847=AXIS2_PLACEMENT_3D('',#1310,#1054,#1055);
#848=AXIS2_PLACEMENT_3D('',#1312,#1057,#1058);
#849=AXIS2_PLACEMENT_3D('',#1313,#1059,#1060);
#850=AXIS2_PLACEMENT_3D('',#1314,#1061,#1062);
#851=AXIS2_PLACEMENT_3D('',#1315,#1063,#1064);
#852=AXIS2_PLACEMENT_3D('',#1316,#1065,#1066);
#853=AXIS2_PLACEMENT_3D('',#1317,#1067,#1068);
#854=AXIS2_PLACEMENT_3D('',#1319,#1069,#1070);
#855=AXIS2_PLACEMENT_3D('',#1320,#1071,#1072);
#856=AXIS2_PLACEMENT_3D('',#1321,#1073,#1074);
#857=AXIS2_PLACEMENT_3D('',#1323,#1075,#1076);
#858=DIRECTION('',(0.,0.,1.));
#859=DIRECTION('',(1.,0.,0.));
#860=DIRECTION('',(-1.,0.,1.26978632813618E-16));
#861=DIRECTION('',(1.26978632813618E-16,0.,1.));
#862=DIRECTION('',(-1.,0.,0.));
#863=DIRECTION('',(0.,0.,1.));
#864=DIRECTION('',(-1.,0.,1.26978632813618E-16));
#865=DIRECTION('',(-1.,0.,0.));
#866=DIRECTION('',(0.,0.,1.));
#867=DIRECTION('',(1.,0.,-1.26978632813618E-16));
#868=DIRECTION('',(1.26978632813618E-16,0.,1.));
#869=DIRECTION('',(1.,0.,-1.26978632813618E-16));
#870=DIRECTION('',(1.26978632813618E-16,0.,1.));
#871=DIRECTION('',(1.,0.,-1.26978632813618E-16));
#872=DIRECTION('',(0.,1.,0.));
#873=DIRECTION('',(0.,0.,1.));
#874=DIRECTION('',(1.26978632813618E-16,0.,1.));
#875=DIRECTION('',(1.,0.,-1.26978632813618E-16));
#876=DIRECTION('',(-1.97127667724637E-16,0.,1.));
#877=DIRECTION('',(1.,0.,1.97127667724637E-16));
#878=DIRECTION('',(0.,1.,0.));
#879=DIRECTION('',(0.,0.,1.));
#880=DIRECTION('',(1.,0.,0.));
#881=DIRECTION('',(0.,0.,-1.));
#882=DIRECTION('',(1.,0.,-1.56281394232145E-16));
#883=DIRECTION('',(0.,0.,1.));
#884=DIRECTION('',(0.,1.,0.));
#885=DIRECTION('',(0.,0.,1.));
#886=DIRECTION('',(1.,0.,0.));
#887=DIRECTION('',(0.,0.,1.));
#888=DIRECTION('',(1.,0.,1.97127667724637E-16));
#889=DIRECTION('',(0.,0.,-1.));
#890=DIRECTION('',(0.,0.,-1.));
#891=DIRECTION('',(-1.,0.,0.));
#892=DIRECTION('',(0.,0.,-1.));
#893=DIRECTION('',(0.707106781186548,0.,0.707106781186547));
#894=DIRECTION('',(0.707106781186547,0.,-0.707106781186548));
#895=DIRECTION('',(-1.97127667724637E-16,0.,1.));
#896=DIRECTION('',(1.,0.,1.97127667724637E-16));
#897=DIRECTION('',(0.,0.,1.));
#898=DIRECTION('',(1.56281394232145E-16,0.,1.));
#899=DIRECTION('',(1.,0.,-1.56281394232145E-16));
#900=DIRECTION('',(0.,0.,1.));
#901=DIRECTION('',(1.26978632813618E-16,0.,1.));
#902=DIRECTION('',(1.,0.,-1.26978632813618E-16));
#903=DIRECTION('',(1.26978632813618E-16,0.,1.));
#904=DIRECTION('',(1.,0.,-1.26978632813618E-16));
#905=DIRECTION('',(-1.97127667724637E-16,0.,1.));
#906=DIRECTION('',(1.,0.,1.97127667724637E-16));
#907=DIRECTION('',(0.,-1.,0.));
#908=DIRECTION('',(0.,0.,-1.));
#909=DIRECTION('',(1.26978632813618E-16,0.,1.));
#910=DIRECTION('',(1.,0.,-1.26978632813618E-16));
#911=DIRECTION('',(0.,-1.,0.));
#912=DIRECTION('',(0.,0.,-1.));
#913=DIRECTION('',(0.,1.,0.));
#914=DIRECTION('',(-0.707106781186547,-0.707106781186548,0.));
#915=DIRECTION('',(0.707106781186548,-0.707106781186547,0.));
#916=DIRECTION('',(0.,1.,0.));
#917=DIRECTION('',(0.,1.,0.));
#918=DIRECTION('',(0.,0.,1.));
#919=DIRECTION('',(1.,0.,-1.26978632813618E-16));
#920=DIRECTION('',(0.,0.,-1.));
#921=DIRECTION('',(1.,0.,0.));
#922=DIRECTION('',(0.,0.,1.));
#923=DIRECTION('',(1.,-1.97448200517685E-16,0.));
#924=DIRECTION('',(1.97448200517685E-16,1.,0.));
#925=DIRECTION('',(-1.97448200517685E-16,-1.,0.));
#926=DIRECTION('',(0.,0.,1.));
#927=DIRECTION('',(-1.97448200517685E-16,-1.,0.));
#928=DIRECTION('',(0.,0.,-1.));
#929=DIRECTION('',(0.,1.,0.));
#930=DIRECTION('',(0.,0.,1.));
#931=DIRECTION('',(1.,0.,1.97127667724637E-16));
#932=DIRECTION('',(0.,0.,1.));
#933=DIRECTION('',(1.,0.,0.));
#934=DIRECTION('',(0.,0.,-1.));
#935=DIRECTION('',(1.,-1.97448200517685E-16,0.));
#936=DIRECTION('',(1.97448200517685E-16,1.,0.));
#937=DIRECTION('',(-1.97448200517685E-16,-1.,0.));
#938=DIRECTION('',(0.,0.,-1.));
#939=DIRECTION('',(-1.97448200517685E-16,-1.,0.));
#940=DIRECTION('',(0.,0.,1.));
#941=DIRECTION('',(0.,0.,1.));
#942=DIRECTION('',(1.,0.,0.));
#943=DIRECTION('',(0.707106781186548,0.707106781186547,0.));
#944=DIRECTION('',(0.707106781186548,-0.707106781186547,0.));
#945=DIRECTION('',(-0.707106781186548,-0.707106781186547,0.));
#946=DIRECTION('',(-0.707106781186548,0.707106781186547,0.));
#947=DIRECTION('',(0.,0.,1.));
#948=DIRECTION('',(1.,0.,0.));
#949=DIRECTION('',(-0.707106781186548,-0.707106781186547,0.));
#950=DIRECTION('',(0.707106781186548,-0.707106781186547,0.));
#951=DIRECTION('',(0.707106781186548,0.707106781186547,0.));
#952=DIRECTION('',(-0.707106781186548,0.707106781186547,0.));
#953=DIRECTION('',(1.26978632813618E-16,0.,1.));
#954=DIRECTION('',(1.,0.,-1.26978632813618E-16));
#955=DIRECTION('',(1.26978632813618E-16,0.,1.));
#956=DIRECTION('',(1.,0.,-1.26978632813618E-16));
#957=DIRECTION('',(1.26978632813618E-16,0.,1.));
#958=DIRECTION('',(1.,0.,-1.26978632813618E-16));
#959=DIRECTION('',(0.707106781186548,-0.707106781186547,-8.97874523283057E-17));
#960=DIRECTION('',(-0.707106781186548,-0.707106781186547,8.97874523283058E-17));
#961=DIRECTION('',(0.,1.,0.));
#962=DIRECTION('',(-1.,0.,0.));
#963=DIRECTION('',(0.,0.,1.));
#964=DIRECTION('',(0.,1.,0.));
#965=DIRECTION('',(0.,0.,1.));
#966=DIRECTION('',(0.,1.,0.));
#967=DIRECTION('',(0.,0.,1.));
#968=DIRECTION('',(1.56281394232145E-16,0.,1.));
#969=DIRECTION('',(1.,0.,-1.56281394232145E-16));
#970=DIRECTION('',(-0.707106781186548,0.707106781186547,1.10507633634838E-16));
#971=DIRECTION('',(0.,1.,0.));
#972=DIRECTION('',(1.56281394232145E-16,0.,1.));
#973=DIRECTION('',(1.,0.,-1.56281394232145E-16));
#974=DIRECTION('',(1.,0.,-1.56281394232145E-16));
#975=DIRECTION('',(1.56281394232145E-16,0.,1.));
#976=DIRECTION('',(1.,0.,-1.56281394232145E-16));
#977=DIRECTION('',(0.,1.,0.));
#978=DIRECTION('',(0.707106781186548,0.707106781186547,-1.10507633634838E-16));
#979=DIRECTION('',(-1.,0.,0.));
#980=DIRECTION('',(0.,0.,1.));
#981=DIRECTION('',(0.,1.,0.));
#982=DIRECTION('',(0.,0.,1.));
#983=DIRECTION('',(0.,1.,0.));
#984=DIRECTION('',(-1.,0.,0.));
#985=DIRECTION('',(1.,0.,1.97127667724637E-16));
#986=DIRECTION('',(0.,0.,1.));
#987=DIRECTION('',(1.,0.,-1.56281394232145E-16));
#988=DIRECTION('',(0.,0.,1.));
#989=DIRECTION('',(1.,0.,0.));
#990=DIRECTION('',(-1.97127667724637E-16,0.,1.));
#991=DIRECTION('',(1.,0.,1.97127667724637E-16));
#992=DIRECTION('',(0.707106781186548,0.,-0.707106781186548));
#993=DIRECTION('',(0.707106781186548,0.,0.707106781186548));
#994=DIRECTION('',(0.,0.,1.));
#995=DIRECTION('',(1.56281394232145E-16,0.,1.));
#996=DIRECTION('',(1.,0.,-1.56281394232145E-16));
#997=DIRECTION('',(0.,1.,0.));
#998=DIRECTION('',(0.,0.,1.));
#999=DIRECTION('',(-0.707106781186547,0.707106781186548,0.));
#1000=DIRECTION('',(0.707106781186548,0.707106781186547,0.));
#1001=DIRECTION('',(0.,-1.,0.));
#1002=DIRECTION('',(0.,0.,-1.));
#1003=DIRECTION('',(-0.707106781186547,0.707106781186548,0.));
#1004=DIRECTION('',(-0.707106781186548,-0.707106781186547,0.));
#1005=DIRECTION('',(0.,1.,0.));
#1006=DIRECTION('',(0.,0.,1.));
#1007=DIRECTION('',(1.56281394232145E-16,0.,1.));
#1008=DIRECTION('',(1.,0.,-1.56281394232145E-16));
#1009=DIRECTION('',(-1.,0.,0.));
#1010=DIRECTION('',(0.,0.,1.));
#1011=DIRECTION('',(1.,0.,-1.56281394232145E-16));
#1012=DIRECTION('',(-1.56281394232145E-16,0.,-1.));
#1013=DIRECTION('',(-1.,0.,0.));
#1014=DIRECTION('',(0.,0.,1.));
#1015=DIRECTION('',(1.56281394232145E-16,0.,1.));
#1016=DIRECTION('',(1.,0.,-1.56281394232145E-16));
#1017=DIRECTION('',(0.,-1.,0.));
#1018=DIRECTION('',(0.,0.,-1.));
#1019=DIRECTION('',(0.,1.,0.));
#1020=DIRECTION('',(0.,0.,1.));
#1021=DIRECTION('',(-0.707106781186547,-0.707106781186548,0.));
#1022=DIRECTION('',(-0.707106781186548,0.707106781186547,0.));
#1023=DIRECTION('',(-1.97127667724637E-16,0.,1.));
#1024=DIRECTION('',(1.,0.,1.97127667724637E-16));
#1025=DIRECTION('',(0.,-1.,0.));
#1026=DIRECTION('',(-0.707106781186548,-0.707106781186547,-1.39390310607579E-16));
#1027=DIRECTION('',(0.707106781186548,-0.707106781186547,1.39390310607579E-16));
#1028=DIRECTION('',(0.,1.,0.));
#1029=DIRECTION('',(-1.,0.,0.));
#1030=DIRECTION('',(0.,0.,1.));
#1031=DIRECTION('',(0.,-1.,0.));
#1032=DIRECTION('',(0.,0.,1.));
#1033=DIRECTION('',(0.,1.,0.));
#1034=DIRECTION('',(-1.97127667724637E-16,0.,1.));
#1035=DIRECTION('',(1.,0.,1.97127667724637E-16));
#1036=DIRECTION('',(0.707106781186548,0.707106781186547,1.39390310607579E-16));
#1037=DIRECTION('',(0.,1.,0.));
#1038=DIRECTION('',(0.,-1.,0.));
#1039=DIRECTION('',(-0.707106781186548,0.707106781186547,-1.39390310607579E-16));
#1040=DIRECTION('',(-1.,0.,0.));
#1041=DIRECTION('',(0.,0.,1.));
#1042=DIRECTION('',(0.,-1.,0.));
#1043=DIRECTION('',(0.,0.,1.));
#1044=DIRECTION('',(0.,1.,0.));
#1045=DIRECTION('',(0.707106781186548,0.,0.707106781186547));
#1046=DIRECTION('',(0.,1.,0.));
#1047=DIRECTION('',(-0.577350269189625,-0.577350269189625,0.577350269189627));
#1048=DIRECTION('',(0.707106781186548,0.,-0.707106781186548));
#1049=DIRECTION('',(0.,-1.,0.));
#1050=DIRECTION('',(-0.577350269189626,0.577350269189626,-0.577350269189626));
#1051=DIRECTION('',(-0.707106781186548,0.,0.707106781186547));
#1052=DIRECTION('',(0.,-1.,0.));
#1053=DIRECTION('',(-0.577350269189626,-0.577350269189625,-0.577350269189626));
#1054=DIRECTION('',(-0.707106781186548,0.,-0.707106781186547));
#1055=DIRECTION('',(0.,1.,0.));
#1056=DIRECTION('',(-0.577350269189626,0.577350269189625,0.577350269189626));
#1057=DIRECTION('',(0.707106781186547,-0.707106781186548,0.));
#1058=DIRECTION('',(0.,0.,1.));
#1059=DIRECTION('',(0.707106781186547,0.707106781186548,0.));
#1060=DIRECTION('',(0.,0.,-1.));
#1061=DIRECTION('',(-0.707106781186547,-0.707106781186548,0.));
#1062=DIRECTION('',(0.,0.,-1.));
#1063=DIRECTION('',(-0.707106781186547,0.707106781186548,0.));
#1064=DIRECTION('',(0.,0.,1.));
#1065=DIRECTION('',(0.,0.,-1.));
#1066=DIRECTION('',(-1.,0.,0.));
#1067=DIRECTION('',(0.,0.,1.));
#1068=DIRECTION('',(1.,0.,0.));
#1069=DIRECTION('',(0.,0.,1.));
#1070=DIRECTION('',(1.,0.,0.));
#1071=DIRECTION('',(0.,0.,-1.));
#1072=DIRECTION('',(-1.,0.,0.));
#1073=DIRECTION('',(0.,0.,1.));
#1074=DIRECTION('',(1.,0.,0.));
#1075=DIRECTION('',(0.,0.,1.));
#1076=DIRECTION('',(1.,0.,0.));
#1077=CARTESIAN_POINT('',(0.,0.,0.));
#1078=CARTESIAN_POINT('',(1.86170210879043E-18,-0.02875,0.00275));
#1079=CARTESIAN_POINT('',(-0.0081,-0.0289456832294801,0.00176933284255042));
#1080=CARTESIAN_POINT('',(-0.00794664449808699,-0.0289032519419654,0.00176086606428748));
#1081=CARTESIAN_POINT('',(-0.00780373441893302,-0.0288381496626324,0.00175));
#1082=CARTESIAN_POINT('',(-0.00767084380241115,-0.02875,0.00175));
#1083=CARTESIAN_POINT('',(-0.0081,-0.0289456832294801,0.00176933284255042));
#1084=CARTESIAN_POINT('',(-0.00767084380241115,-0.02875,0.00175));
#1085=CARTESIAN_POINT('',(-0.0081,-0.02875,0.00275));
#1086=CARTESIAN_POINT('',(-0.0081,-0.0294114378277661,0.002));
#1087=CARTESIAN_POINT('',(2.0095478595839E-18,-0.0294114378277661,0.002));
#1088=CARTESIAN_POINT('',(0.0081,-0.0294114378277661,0.002));
#1089=CARTESIAN_POINT('',(0.0081,-0.02875,0.00275));
#1090=CARTESIAN_POINT('',(0.0081,-0.02875,0.00175));
#1091=CARTESIAN_POINT('',(0.0081,-0.02875,0.00175));
#1092=CARTESIAN_POINT('',(-0.0081,-0.02675,0.00275));
#1093=CARTESIAN_POINT('',(-0.0099957574340782,-0.027387262701825,0.00175));
#1094=CARTESIAN_POINT('',(-0.0100317198368263,-0.0278643987706204,0.00175));
#1095=CARTESIAN_POINT('',(-0.00960486669044982,-0.0288491189198944,0.00184620982505735));
#1096=CARTESIAN_POINT('',(-0.00856591770919918,-0.0290745960368499,0.00179505622308359));
#1097=CARTESIAN_POINT('',(-0.0081,-0.0289456832294801,0.00176933284255042));
#1098=CARTESIAN_POINT('',(-0.0099957574340782,-0.027387262701825,0.00175));
#1099=CARTESIAN_POINT('',(-0.0081,-0.02675,0.00175));
#1100=CARTESIAN_POINT('',(-0.0101,-0.02675,0.00175));
#1101=CARTESIAN_POINT('',(-0.0101,-0.02675,0.00275));
#1102=CARTESIAN_POINT('',(-0.0111,-0.02675,0.00275));
#1103=CARTESIAN_POINT('',(-0.0081,-0.02675,0.00275));
#1104=CARTESIAN_POINT('',(-0.011,-0.027518114574787,0.00275000000000007));
#1105=CARTESIAN_POINT('',(-0.011,-0.0275181145747872,0.00275000000000005));
#1106=CARTESIAN_POINT('',(-0.011,-0.0275181145747872,0.00273317086817409));
#1107=CARTESIAN_POINT('',(-0.011,-0.0275164616075458,0.00271650616290205));
#1108=CARTESIAN_POINT('',(-0.011,-0.0275132148263028,0.00269999999999994));
#1109=CARTESIAN_POINT('',(-0.011,-0.0275132148263022,0.0027));
#1110=CARTESIAN_POINT('',(-0.011,-0.0275132148263022,0.0027));
#1111=CARTESIAN_POINT('',(-0.0109415839971174,-0.0277236885837175,0.00264158399711742));
#1112=CARTESIAN_POINT('',(-0.0107809450664723,-0.0281126351682629,0.00248094506647235));
#1113=CARTESIAN_POINT('',(-0.0104510261573526,-0.0283302106451266,0.00215102615735265));
#1114=CARTESIAN_POINT('',(-0.0103,-0.0282477487476424,0.002));
#1115=CARTESIAN_POINT('',(-0.0103,-0.0282477487476424,0.002));
#1116=CARTESIAN_POINT('',(-0.0081,-0.02675,0.002));
#1117=CARTESIAN_POINT('',(8.67361737988404E-18,0.03075,0.01));
#1118=CARTESIAN_POINT('',(8.67361737988404E-18,0.03075,0.01));
#1119=CARTESIAN_POINT('',(-0.0095,0.03075,0.01));
#1120=CARTESIAN_POINT('',(0.0095,0.03075,0.01));
#1121=CARTESIAN_POINT('',(0.0095,0.03075,0.01));
#1122=CARTESIAN_POINT('',(0.0095,0.03075,0.00825));
#1123=CARTESIAN_POINT('',(0.,0.03075,0.00825));
#1124=CARTESIAN_POINT('',(-0.0095,0.03075,0.00825));
#1125=CARTESIAN_POINT('',(-0.0095,0.03075,0.01));
#1126=CARTESIAN_POINT('',(-5.20417042793042E-18,-0.03075,0.01));
#1127=CARTESIAN_POINT('',(-5.20417042793042E-18,-0.03075,0.));
#1128=CARTESIAN_POINT('',(-0.0095,-0.03075,0.));
#1129=CARTESIAN_POINT('',(0.0095,-0.03075,0.));
#1130=CARTESIAN_POINT('',(0.0095,-0.03075,0.01));
#1131=CARTESIAN_POINT('',(0.0095,-0.03075,0.002));
#1132=CARTESIAN_POINT('',(-3.62714908613332E-18,-0.03075,0.002));
#1133=CARTESIAN_POINT('',(-0.0095,-0.03075,0.002));
#1134=CARTESIAN_POINT('',(-0.0095,-0.03075,0.01));
#1135=CARTESIAN_POINT('',(0.0081,-0.02675,0.005));
#1136=CARTESIAN_POINT('',(0.011,-0.0275181145747868,0.005));
#1137=CARTESIAN_POINT('',(0.011,-0.0275181145747868,0.0053));
#1138=CARTESIAN_POINT('',(0.011,-0.027518114574787,0.00275000000000007));
#1139=CARTESIAN_POINT('',(0.0081,-0.02675,0.0082));
#1140=CARTESIAN_POINT('',(0.0103,-0.0287896078054371,0.006));
#1141=CARTESIAN_POINT('',(0.0081,-0.02675,0.006));
#1142=CARTESIAN_POINT('',(0.0081,-0.02975,0.006));
#1143=CARTESIAN_POINT('',(0.0081,-0.02975,0.00175));
#1144=CARTESIAN_POINT('',(0.0081,-0.02975,0.00725));
#1145=CARTESIAN_POINT('',(0.0081,-0.02675,0.00725));
#1146=CARTESIAN_POINT('',(0.0111,-0.02675,0.00725));
#1147=CARTESIAN_POINT('',(0.0111,-0.02675,0.00825));
#1148=CARTESIAN_POINT('',(0.0111,-0.02675,0.00275));
#1149=CARTESIAN_POINT('',(0.0081,-0.02675,0.00275));
#1150=CARTESIAN_POINT('',(0.0081,-0.02675,0.00275));
#1151=CARTESIAN_POINT('',(0.0081,-0.02675,0.002));
#1152=CARTESIAN_POINT('',(0.0103,-0.0282477487476425,0.002));
#1153=CARTESIAN_POINT('',(0.0103,-0.0282477487476425,0.002));
#1154=CARTESIAN_POINT('',(0.0104510308275453,-0.0283302131951018,0.00215103082754535));
#1155=CARTESIAN_POINT('',(0.0107807693766196,-0.0281128547654917,0.00248076937661957));
#1156=CARTESIAN_POINT('',(0.0109415851089963,-0.0277236845776009,0.00264158510899641));
#1157=CARTESIAN_POINT('',(0.011,-0.0275132148263023,0.00270000000000011));
#1158=CARTESIAN_POINT('',(0.011,-0.0275132148263022,0.00269999999999939));
#1159=CARTESIAN_POINT('',(0.011,-0.0275181145747872,0.00275000000000005));
#1160=CARTESIAN_POINT('',(0.011,-0.0275181145747872,0.00273317086817389));
#1161=CARTESIAN_POINT('',(0.011,-0.0275164616075457,0.00271650616290165));
#1162=CARTESIAN_POINT('',(0.011,-0.0275132148263027,0.00269999999999934));
#1163=CARTESIAN_POINT('',(0.0101,-0.02675,0.00275));
#1164=CARTESIAN_POINT('',(0.0101,-0.02675,0.00175));
#1165=CARTESIAN_POINT('',(0.0081,-0.02675,0.00175));
#1166=CARTESIAN_POINT('',(0.0101,-0.02975,0.00275));
#1167=CARTESIAN_POINT('',(0.0111,-0.02675,0.00275));
#1168=CARTESIAN_POINT('',(0.0111,0.02915,0.00275));
#1169=CARTESIAN_POINT('',(0.0101,0.03015,0.00275));
#1170=CARTESIAN_POINT('',(0.0101,0.03015,0.00175));
#1171=CARTESIAN_POINT('',(0.0101,0.03075,0.00175));
#1172=CARTESIAN_POINT('',(8.67361737988404E-18,0.03075,0.01));
#1173=CARTESIAN_POINT('',(1.7347234759768E-18,0.03075,0.00175));
#1174=CARTESIAN_POINT('',(-0.0095,0.03075,0.00175));
#1175=CARTESIAN_POINT('',(0.0095,0.03075,0.00175));
#1176=CARTESIAN_POINT('',(0.0095,0.03075,0.01));
#1177=CARTESIAN_POINT('',(0.0095,0.03075,0.));
#1178=CARTESIAN_POINT('',(8.67361737988404E-18,0.03075,0.));
#1179=CARTESIAN_POINT('',(-0.0095,0.03075,0.));
#1180=CARTESIAN_POINT('',(-0.0095,0.03075,0.01));
#1181=CARTESIAN_POINT('',(-0.012,0.,0.01));
#1182=CARTESIAN_POINT('',(-0.012,0.,0.));
#1183=CARTESIAN_POINT('',(-0.012,0.02825,0.));
#1184=CARTESIAN_POINT('',(-0.012,-0.02825,0.));
#1185=CARTESIAN_POINT('',(-0.012,-0.02825,0.01));
#1186=CARTESIAN_POINT('',(-0.012,-0.02825,0.01));
#1187=CARTESIAN_POINT('',(-0.012,0.,0.01));
#1188=CARTESIAN_POINT('',(-0.012,0.02825,0.01));
#1189=CARTESIAN_POINT('',(-0.012,0.02825,0.));
#1190=CARTESIAN_POINT('',(-5.20417042793042E-18,-0.03075,0.01));
#1191=CARTESIAN_POINT('',(-4.41565975703187E-18,-0.03075,0.006));
#1192=CARTESIAN_POINT('',(-0.0095,-0.03075,0.006));
#1193=CARTESIAN_POINT('',(0.0095,-0.03075,0.006));
#1194=CARTESIAN_POINT('',(0.0095,-0.03075,0.01));
#1195=CARTESIAN_POINT('',(0.0095,-0.03075,0.01));
#1196=CARTESIAN_POINT('',(-5.20417042793042E-18,-0.03075,0.01));
#1197=CARTESIAN_POINT('',(-0.0095,-0.03075,0.01));
#1198=CARTESIAN_POINT('',(-0.0095,-0.03075,0.01));
#1199=CARTESIAN_POINT('',(0.012,0.,0.01));
#1200=CARTESIAN_POINT('',(0.012,0.,0.01));
#1201=CARTESIAN_POINT('',(0.012,0.02825,0.01));
#1202=CARTESIAN_POINT('',(0.012,-0.02825,0.01));
#1203=CARTESIAN_POINT('',(0.012,-0.02825,0.));
#1204=CARTESIAN_POINT('',(0.012,-0.02825,0.));
#1205=CARTESIAN_POINT('',(0.012,0.,0.));
#1206=CARTESIAN_POINT('',(0.012,0.02825,0.));
#1207=CARTESIAN_POINT('',(0.012,0.02825,0.01));
#1208=CARTESIAN_POINT('',(0.,0.,0.01));
#1209=CARTESIAN_POINT('',(0.020125,-0.020125,0.01));
#1210=CARTESIAN_POINT('',(0.020125,0.020125,0.01));
#1211=CARTESIAN_POINT('',(-0.020125,0.020125,0.01));
#1212=CARTESIAN_POINT('',(-0.020125,-0.020125,0.01));
#1213=CARTESIAN_POINT('',(0.,0.,0.));
#1214=CARTESIAN_POINT('',(0.012,-0.02825,0.));
#1215=CARTESIAN_POINT('',(-0.0095,-0.03075,0.));
#1216=CARTESIAN_POINT('',(-0.012,0.02825,0.));
#1217=CARTESIAN_POINT('',(0.0095,0.03075,0.));
#1218=CARTESIAN_POINT('',(1.7347234759768E-18,-0.02975,0.00175));
#1219=CARTESIAN_POINT('',(0.0085,0.0265,0.00175));
#1220=CARTESIAN_POINT('',(0.01,0.0265,0.00175));
#1221=CARTESIAN_POINT('',(-0.0085,-0.0275,0.00175));
#1222=CARTESIAN_POINT('',(0.035,0.00525,0.00175));
#1223=CARTESIAN_POINT('',(-0.035,0.00525000000000006,0.00175));
#1224=CARTESIAN_POINT('',(-0.0101,0.03015,0.00175));
#1225=CARTESIAN_POINT('',(-0.0101,-0.02975,0.00175));
#1226=CARTESIAN_POINT('',(-0.0111,-0.02975,0.005));
#1227=CARTESIAN_POINT('',(-0.0111,-0.02975,0.00275));
#1228=CARTESIAN_POINT('',(-0.0111,0.02915,0.00275));
#1229=CARTESIAN_POINT('',(-0.0111,0.02915,0.01));
#1230=CARTESIAN_POINT('',(-0.0111,0.02915,0.00725));
#1231=CARTESIAN_POINT('',(-0.0111,-0.02675,0.00725));
#1232=CARTESIAN_POINT('',(-0.0111,-0.02675,0.00725));
#1233=CARTESIAN_POINT('',(-0.0111,-0.02675,0.005));
#1234=CARTESIAN_POINT('',(0.,-0.02975,0.00825));
#1235=CARTESIAN_POINT('',(0.0095,0.03075,0.00825));
#1236=CARTESIAN_POINT('',(0.0101,0.03015,0.00825));
#1237=CARTESIAN_POINT('',(0.0101,-0.02975,0.00825));
#1238=CARTESIAN_POINT('',(0.0101,-0.02675,0.00825));
#1239=CARTESIAN_POINT('',(0.0081,-0.02675,0.00825));
#1240=CARTESIAN_POINT('',(0.0081,-0.02875,0.00825));
#1241=CARTESIAN_POINT('',(0.,-0.02875,0.00825));
#1242=CARTESIAN_POINT('',(-0.0081,-0.02875,0.00825));
#1243=CARTESIAN_POINT('',(-0.0081,-0.02675,0.00825));
#1244=CARTESIAN_POINT('',(-0.0101,-0.02675,0.00825));
#1245=CARTESIAN_POINT('',(-0.0101,0.03075,0.00825));
#1246=CARTESIAN_POINT('',(-0.0101,0.03015,0.00825));
#1247=CARTESIAN_POINT('',(-0.012,0.02825,0.00825));
#1248=CARTESIAN_POINT('',(0.0111,-0.02975,0.005));
#1249=CARTESIAN_POINT('',(0.0111,-0.02975,0.00725));
#1250=CARTESIAN_POINT('',(0.0111,0.02915,0.00725));
#1251=CARTESIAN_POINT('',(0.0111,0.02915,0.005));
#1252=CARTESIAN_POINT('',(6.93889390390723E-18,-0.02975,0.005));
#1253=CARTESIAN_POINT('',(6.74176623618259E-18,-0.02975,0.006));
#1254=CARTESIAN_POINT('',(-0.0081,-0.02975,0.006));
#1255=CARTESIAN_POINT('',(-0.0081,-0.02975,0.005));
#1256=CARTESIAN_POINT('',(-0.0081,-0.02975,0.00725));
#1257=CARTESIAN_POINT('',(7.29052704092955E-18,-0.02975,0.00725));
#1258=CARTESIAN_POINT('',(-0.0081,-0.02675,0.005));
#1259=CARTESIAN_POINT('',(-0.0081,-0.02675,0.006));
#1260=CARTESIAN_POINT('',(-0.0103,-0.0287896078054371,0.006));
#1261=CARTESIAN_POINT('',(-0.0081,-0.02675,0.0082));
#1262=CARTESIAN_POINT('',(-0.011,-0.0275181145747868,0.0053));
#1263=CARTESIAN_POINT('',(-0.011,-0.0275181145747868,0.005));
#1264=CARTESIAN_POINT('',(-0.0081,-0.02675,0.00725));
#1265=CARTESIAN_POINT('',(-0.0101,-0.02975,0.00275));
#1266=CARTESIAN_POINT('',(-0.0101,0.03015,0.00275));
#1267=CARTESIAN_POINT('',(-0.0101,-0.02975,0.00725));
#1268=CARTESIAN_POINT('',(-0.0101,0.03015,0.00725));
#1269=CARTESIAN_POINT('',(-0.0101,-0.02675,0.00725));
#1270=CARTESIAN_POINT('',(-0.0081,-0.02675,0.00725));
#1271=CARTESIAN_POINT('',(-0.0081,-0.02875,0.00725));
#1272=CARTESIAN_POINT('',(7.29052704092955E-18,-0.02875,0.00725));
#1273=CARTESIAN_POINT('',(0.0081,-0.02875,0.00725));
#1274=CARTESIAN_POINT('',(0.0081,-0.02675,0.00725));
#1275=CARTESIAN_POINT('',(0.0101,-0.02675,0.00725));
#1276=CARTESIAN_POINT('',(0.0101,-0.02975,0.00725));
#1277=CARTESIAN_POINT('',(0.0101,0.03015,0.00725));
#1278=CARTESIAN_POINT('',(0.,-0.035,0.006));
#1279=CARTESIAN_POINT('',(0.0103,-0.035,0.006));
#1280=CARTESIAN_POINT('',(0.0103,-0.02995,0.006));
#1281=CARTESIAN_POINT('',(0.012,-0.02825,0.006));
#1282=CARTESIAN_POINT('',(-0.0095,-0.03075,0.006));
#1283=CARTESIAN_POINT('',(-0.0103,-0.02995,0.006));
#1284=CARTESIAN_POINT('',(-0.0103,-0.0275181145747868,0.006));
#1285=CARTESIAN_POINT('',(-0.011,-0.035,0.004));
#1286=CARTESIAN_POINT('',(-0.011,-0.03075,0.0053));
#1287=CARTESIAN_POINT('',(-0.011,-0.02925,0.0053));
#1288=CARTESIAN_POINT('',(-0.011,-0.02925,0.01));
#1289=CARTESIAN_POINT('',(-0.011,-0.02925,0.0027));
#1290=CARTESIAN_POINT('',(-0.011,-0.035,0.0027));
#1291=CARTESIAN_POINT('',(0.,-0.035,0.002));
#1292=CARTESIAN_POINT('',(0.002625,-0.037625,0.002));
#1293=CARTESIAN_POINT('',(0.0103,-0.02995,0.002));
#1294=CARTESIAN_POINT('',(0.0103,0.,0.002));
#1295=CARTESIAN_POINT('',(-0.0103,-0.035,0.002));
#1296=CARTESIAN_POINT('',(-0.0103,-0.02995,0.002));
#1297=CARTESIAN_POINT('',(-0.002625,-0.037625,0.002));
#1298=CARTESIAN_POINT('',(0.011,-0.035,0.004));
#1299=CARTESIAN_POINT('',(0.011,-0.03075,0.0027));
#1300=CARTESIAN_POINT('',(0.011,-0.02925,0.0027));
#1301=CARTESIAN_POINT('',(0.011,-0.02925,0.004));
#1302=CARTESIAN_POINT('',(0.011,-0.02925,0.0053));
#1303=CARTESIAN_POINT('',(0.011,-0.035,0.0053));
#1304=CARTESIAN_POINT('',(0.011,-0.035,0.0053));
#1305=CARTESIAN_POINT('',(0.0101,-0.03015,0.0062));
#1306=CARTESIAN_POINT('',(-0.0103,-0.035,0.006));
#1307=CARTESIAN_POINT('',(-0.00843333333333334,-0.0318166666666667,0.00786666666666666));
#1308=CARTESIAN_POINT('',(0.0103,-0.035,0.002));
#1309=CARTESIAN_POINT('',(0.0141,-0.02615,0.0058));
#1310=CARTESIAN_POINT('',(-0.011,-0.035,0.0027));
#1311=CARTESIAN_POINT('',(-0.0124333333333333,-0.0278166666666667,0.00413333333333334));
#1312=CARTESIAN_POINT('',(0.012,-0.02825,0.01));
#1313=CARTESIAN_POINT('',(-0.0095,-0.03075,0.01));
#1314=CARTESIAN_POINT('',(0.0095,0.03075,0.01));
#1315=CARTESIAN_POINT('',(-0.012,0.02825,0.01));
#1316=CARTESIAN_POINT('',(-0.0085,-0.0275,0.004));
#1317=CARTESIAN_POINT('',(-0.0085,-0.0275,0.004));
#1318=CARTESIAN_POINT('',(-0.007,-0.0275,0.004));
#1319=CARTESIAN_POINT('',(0.,0.,0.004));
#1320=CARTESIAN_POINT('',(0.0085,0.0265,0.004));
#1321=CARTESIAN_POINT('',(0.0085,0.0265,0.004));
#1322=CARTESIAN_POINT('',(0.01,0.0265,0.004));
#1323=CARTESIAN_POINT('',(0.,0.,0.004));
#1324=MECHANICAL_DESIGN_GEOMETRIC_PRESENTATION_REPRESENTATION('',(#775),
#1325);
#1325=(
GEOMETRIC_REPRESENTATION_CONTEXT(3)
GLOBAL_UNCERTAINTY_ASSIGNED_CONTEXT((#1326))
GLOBAL_UNIT_ASSIGNED_CONTEXT((#1329,#1328,#1327))
REPRESENTATION_CONTEXT('Part 1','TOP_LEVEL_ASSEMBLY_PART')
);
#1326=UNCERTAINTY_MEASURE_WITH_UNIT(LENGTH_MEASURE(2.E-5),#1329,
'DISTANCE_ACCURACY_VALUE','Maximum Tolerance applied to model');
#1327=(
NAMED_UNIT(*)
SI_UNIT($,.STERADIAN.)
SOLID_ANGLE_UNIT()
);
#1328=(
NAMED_UNIT(*)
PLANE_ANGLE_UNIT()
SI_UNIT($,.RADIAN.)
);
#1329=(
LENGTH_UNIT()
NAMED_UNIT(*)
SI_UNIT($,.METRE.)
);
#1330=PRODUCT_DEFINITION_SHAPE('','',#1331);
#1331=PRODUCT_DEFINITION('','',#1333,#1332);
#1332=PRODUCT_DEFINITION_CONTEXT('',#1339,'design');
#1333=PRODUCT_DEFINITION_FORMATION_WITH_SPECIFIED_SOURCE('','',#1335,
 .NOT_KNOWN.);
#1334=PRODUCT_RELATED_PRODUCT_CATEGORY('','',(#1335));
#1335=PRODUCT('Part 1','Part 1','Part 1',(#1337));
#1336=PRODUCT_CATEGORY('','');
#1337=PRODUCT_CONTEXT('',#1339,'mechanical');
#1338=APPLICATION_PROTOCOL_DEFINITION('international standard',
'ap242_managed_model_based_3d_engineering',2020,#1339);
#1339=APPLICATION_CONTEXT('managed model based 3d engineering');
ENDSEC;
END-ISO-10303-21;
